HIERARCHY
ROOT Pelvis
{
	OFFSET 0.000000 0.000000 0.000000
	CHANNELS 6 Xposition Yposition Zposition Zrotation Yrotation Xrotation 
	JOINT Left_hip
	{
		OFFSET 0.068973 -0.091024 -0.007589
		CHANNELS 3 Zrotation Yrotation Xrotation
		JOINT Left_knee
		{
			OFFSET 0.036482 -0.391037 -0.003979
			CHANNELS 3 Zrotation Yrotation Xrotation
			JOINT Left_ankle
			{
				OFFSET -0.012239 -0.415469 -0.043440
				CHANNELS 3 Zrotation Yrotation Xrotation
				JOINT Left_foot
				{
					OFFSET 0.023806 -0.058558 0.118702
					CHANNELS 3 Zrotation Yrotation Xrotation
					End Site
					{
						OFFSET 0.000000 0.000000 0.000000
					}
				}
			}
		}
	}
	JOINT Right_hip
	{
		OFFSET -0.066552 -0.090468 -0.003847
		CHANNELS 3 Zrotation Yrotation Xrotation
		JOINT Right_knee
		{
			OFFSET -0.042435 -0.398340 -0.006400
			CHANNELS 3 Zrotation Yrotation Xrotation
			JOINT Right_ankle
			{
				OFFSET 0.014931 -0.415421 -0.041327
				CHANNELS 3 Zrotation Yrotation Xrotation
				JOINT Right_foot
				{
					OFFSET -0.021472 -0.049410 0.121889
					CHANNELS 3 Zrotation Yrotation Xrotation
					End Site
					{
						OFFSET 0.000000 0.000000 0.000000
					}
				}
			}
		}
	}
	JOINT Spine1
	{
		OFFSET -0.002904 0.105700 -0.022855
		CHANNELS 3 Zrotation Yrotation Xrotation
		JOINT Spine2
		{
			OFFSET 0.004179 0.132554 -0.002501
			CHANNELS 3 Zrotation Yrotation Xrotation
			JOINT Spine3
			{
				OFFSET 0.001987 0.049603 0.025988
				CHANNELS 3 Zrotation Yrotation Xrotation
				JOINT Neck
				{
					OFFSET -0.003935 0.211336 -0.045638
					CHANNELS 3 Zrotation Yrotation Xrotation
					JOINT Head
					{
						OFFSET 0.003906 0.065991 0.051018
						CHANNELS 3 Zrotation Yrotation Xrotation
						End Site
						{
							OFFSET 0.000000 0.000000 0.000000
						}
					}
				}
				JOINT Left_collar
				{
					OFFSET 0.072882 0.117751 -0.036270
					CHANNELS 3 Zrotation Yrotation Xrotation
					JOINT Left_shoulder
					{
						OFFSET 0.082118 0.032630 -0.005771
						CHANNELS 3 Zrotation Yrotation Xrotation
						JOINT Left_elbow
						{
							OFFSET 0.263305 -0.015144 -0.028095
							CHANNELS 3 Zrotation Yrotation Xrotation
							JOINT Left_wrist
							{
								OFFSET 0.250741 0.010115 -0.000759
								CHANNELS 3 Zrotation Yrotation Xrotation
								JOINT Left_palm
								{
									OFFSET 0.080683 -0.009989 -0.013613
									CHANNELS 3 Zrotation Yrotation Xrotation
									End Site
									{
										OFFSET 0.000000 0.000000 0.000000
									}
								}
							}
						}
					}
				}
				JOINT Right_collar
				{
					OFFSET -0.074811 0.116132 -0.040385
					CHANNELS 3 Zrotation Yrotation Xrotation
					JOINT Right_shoulder
					{
						OFFSET -0.085089 0.032943 -0.007484
						CHANNELS 3 Zrotation Yrotation Xrotation
						JOINT Right_elbow
						{
							OFFSET -0.254763 -0.014219 -0.020321
							CHANNELS 3 Zrotation Yrotation Xrotation
							JOINT Right_wrist
							{
								OFFSET -0.256597 0.009233 -0.005063
								CHANNELS 3 Zrotation Yrotation Xrotation
								JOINT Right_palm
								{
									OFFSET -0.080528 -0.007219 -0.010379
									CHANNELS 3 Zrotation Yrotation Xrotation
									End Site
									{
										OFFSET 0.000000 0.000000 0.000000
									}
								}
							}
						}
					}
				}
			}
		}
	}
}
MOTION
Frames: 9
Frame Time: 0.100000
0.000000 0.000000 0.000000 174.396012 25.831643 -20.653754 8.178478 8.077803 17.737988 -2.912790 3.813806 -7.994610 -4.878409 8.124432 2.439620 3.417037 8.917977 -3.174982 -4.063086 -7.640024 15.509742 3.924654 -7.897778 -3.905282 3.110702 -6.566771 -0.669481 -0.195194 -3.537894 3.770650 1.458350 1.125530 -3.261180 0.194033 -2.695821 12.148988 0.195438 -1.238598 -1.787287 1.802238 6.270484 6.453635 0.127608 -4.781707 -11.306425 -29.357684 -9.051877 10.328179 -52.004276 -5.513757 11.221406 1.555108 -21.930741 16.085375 -11.849774 -8.923024 11.964111 -9.960722 -3.372433 -23.178668 27.250430 14.146895 10.600805 55.464782 4.428401 15.457850 -4.479391 21.669555 10.268214 4.309386 4.894569 6.117378 10.832151 4.393233 -9.355731 
0.000336 0.000059 -0.000141 174.407684 25.816061 -20.646231 8.192879 8.085698 17.738322 -2.921310 3.810071 -8.018259 -4.898038 8.122523 2.451166 3.428112 8.919217 -3.166693 -4.051603 -7.645355 15.552300 3.934216 -7.865429 -4.016439 3.121588 -6.578451 -0.652309 -0.243545 -3.529202 3.775126 1.493296 1.114473 -3.213983 0.197863 -2.716665 12.161087 0.207463 -1.246978 -1.775715 1.770415 6.240200 6.371616 0.137097 -4.815402 -11.422040 -29.360920 -9.098282 10.362358 -51.997901 -5.502135 11.196770 1.569324 -21.924296 16.072777 -11.813935 -8.873863 11.933720 -9.978117 -3.389907 -23.204383 27.225569 14.181757 10.605833 55.461993 4.430342 15.433734 -4.477973 21.669925 10.266891 4.286203 4.857208 6.104132 10.856190 4.408070 -9.382957 
0.000892 0.000098 -0.000267 174.422245 25.771997 -20.611012 8.198085 8.098651 17.666475 -2.902638 3.853466 -7.970914 -4.882911 8.126711 2.458153 3.406761 8.942523 -3.158910 -4.015111 -7.635102 15.486222 3.933681 -7.842619 -4.014836 3.107637 -6.569019 -0.662525 -0.247239 -3.518890 3.794497 1.480733 1.102496 -3.154398 0.207155 -2.744226 12.179849 0.210885 -1.260788 -1.795436 1.767118 6.201309 6.354177 0.171027 -4.868193 -11.476585 -29.381639 -9.161336 10.342939 -52.012090 -5.548873 11.222704 1.563862 -21.906830 16.045978 -11.833403 -8.842151 11.993983 -10.000220 -3.422504 -23.194133 27.235462 14.209672 10.582245 55.433702 4.427836 15.432559 -4.497378 21.704545 10.267427 4.308295 4.852564 6.172548 10.893591 4.431606 -9.393697 
0.001522 0.000023 -0.000006 174.416573 25.665404 -20.590518 8.251502 8.126039 17.647277 -2.881105 3.912531 -7.961644 -4.889485 8.145409 2.477126 3.425892 8.955689 -3.166128 -3.956581 -7.639080 15.381998 3.942811 -7.819163 -3.899580 3.131227 -6.554668 -0.687119 -0.303626 -3.470794 3.786527 1.428135 1.076398 -3.106647 0.211957 -2.767019 12.181720 0.220480 -1.287828 -1.784880 1.811836 6.189307 6.355352 0.192154 -4.898769 -11.377329 -29.377476 -9.226884 10.370602 -52.012843 -5.603827 11.252452 1.524608 -21.937993 16.103158 -11.750007 -8.802264 12.020924 -10.021820 -3.446164 -23.208551 27.248393 14.242714 10.583068 55.460050 4.468172 15.460989 -4.492217 21.694862 10.299968 4.246336 4.809794 6.212321 10.917201 4.447903 -9.419461 
0.001752 -0.000083 0.000349 174.442500 25.460777 -20.543643 8.284831 8.164792 17.660314 -2.865767 3.988762 -7.973470 -4.870893 8.186193 2.491150 3.412069 8.970237 -3.163736 -3.917108 -7.610279 15.306776 3.953014 -7.760173 -3.859037 3.117160 -6.504089 -0.677147 -0.260190 -3.460405 3.799596 1.404058 1.097269 -3.168482 0.183267 -2.737879 12.261020 0.166813 -1.266110 -1.806732 1.799698 6.182782 6.450355 0.164970 -4.950226 -11.309803 -29.369873 -9.208281 10.351287 -51.955805 -5.616739 11.263341 1.565411 -21.875655 15.967968 -11.762738 -8.795337 12.028758 -10.043604 -3.466802 -23.217601 27.267783 14.252084 10.589439 55.479629 4.503878 15.473996 -4.490374 21.721028 10.189203 4.250189 4.827067 6.118053 10.958763 4.451315 -9.425828 
0.002516 -0.000602 0.000117 174.350824 25.537265 -20.633338 8.353355 8.107230 17.540897 -2.835367 4.071062 -7.772827 -4.907473 8.183672 2.613471 3.439932 8.897122 -3.183184 -3.803563 -7.559628 15.360106 3.965179 -7.945220 -3.923180 2.977626 -6.465727 -0.457774 -0.057378 -3.697426 3.824547 1.262565 1.102713 -3.011629 0.168709 -2.700556 12.314673 0.229844 -1.266864 -1.782558 1.825347 6.116625 6.489781 0.286395 -5.000739 -11.380782 -29.259591 -9.256410 10.460709 -51.832016 -5.613028 11.297573 1.527431 -22.739531 16.282179 -11.769427 -9.153088 12.008013 -9.975175 -3.309189 -23.192176 27.217132 14.336113 10.700239 55.392083 4.454520 15.342026 -4.619089 21.983720 10.132251 4.241531 5.059195 5.813804 10.781873 4.311493 -9.307320 
0.005048 -0.000940 -0.003288 174.139971 25.875408 -20.529129 8.352960 7.931037 16.750822 -2.739881 4.173696 -7.418478 -4.938705 8.075661 2.764329 3.545805 8.858341 -3.055067 -3.559971 -7.607304 14.889720 3.994501 -8.312600 -3.950559 2.767197 -6.426462 -0.087641 0.225011 -3.898269 3.932637 0.891708 1.261676 -2.598763 0.335829 -2.652346 12.762356 0.433581 -1.208036 -1.882017 1.960136 5.674754 6.464905 0.835152 -5.631128 -12.084144 -28.786057 -9.507971 10.337274 -51.486102 -5.949247 11.408163 1.254038 -25.356600 16.358800 -11.612671 -9.771917 11.873036 -9.861852 -3.096286 -22.837041 27.043791 14.625830 10.782366 54.745481 4.457992 14.877602 -4.981982 22.393335 9.576918 4.284060 5.396215 5.655356 10.482234 4.115537 -9.099498 
0.010885 0.000144 -0.012889 173.967024 26.376408 -20.229799 8.111191 7.720404 15.092359 -2.525842 4.209156 -6.689653 -4.621534 7.747340 2.801694 3.217165 9.166901 -2.553774 -3.257363 -7.633341 13.465356 3.892011 -8.889941 -3.296638 2.403887 -6.471163 0.082001 0.570720 -3.793176 4.140722 0.385491 1.581335 -1.407921 0.607126 -2.790237 14.270602 0.701923 -1.079601 -2.303938 1.813191 5.659356 6.287115 1.716420 -6.451011 -14.012813 -28.547693 -11.271333 10.255963 -50.865063 -7.159187 11.272288 1.600085 -26.892560 14.672237 -11.859073 -9.896489 12.274315 -9.928162 -3.210028 -22.417118 27.115982 16.190471 11.232698 53.403794 4.811258 14.045777 -6.030541 22.557115 7.984670 4.624626 5.738524 6.363668 10.648645 4.149919 -9.029832 
0.020748 0.002347 -0.029668 173.902288 26.862114 -19.858477 7.668869 7.566831 12.591898 -2.246623 4.290692 -5.384891 -4.035276 7.263948 2.870266 2.540233 9.868366 -1.807560 -2.945336 -7.526110 11.084081 3.639952 -9.528345 -1.945439 2.190101 -6.639657 0.194490 0.405839 -3.220554 4.240260 -0.097845 1.982616 0.931743 0.779479 -3.099629 16.854956 0.899484 -0.862127 -2.727533 1.247859 6.249053 6.006420 2.932814 -7.294422 -17.051017 -28.387003 -14.769667 10.532158 -49.598059 -8.990851 10.596287 2.341789 -26.742038 11.218764 -12.538698 -9.367942 12.953590 -10.272625 -3.679441 -22.202983 27.040701 19.250872 11.991103 51.696481 5.700814 12.764728 -7.803524 23.214165 5.153091 5.213182 6.099664 7.375812 11.384170 4.389140 -9.249587 
